<svg width="177" height="47" viewBox="0 0 177 47" fill="none" xmlns="http://www.w3.org/2000/svg">
<path d="M59.4588 25.8926C59.2318 25.8926 59.0445 25.8188 58.897 25.6713C58.7494 25.5124 58.6756 25.3194 58.6756 25.0924V13.3963C58.6756 13.1579 58.7494 12.965 58.897 12.8174C59.0445 12.6699 59.2318 12.5961 59.4588 12.5961C59.7085 12.5961 59.9185 12.6926 60.0887 12.8855L67.784 23.0835V13.3963C67.784 13.1579 67.8577 12.965 68.0053 12.8174C68.1642 12.6699 68.3571 12.5961 68.5841 12.5961C68.8111 12.5961 68.9984 12.6699 69.146 12.8174C69.2935 12.965 69.3673 13.1579 69.3673 13.3963V25.0924C69.3673 25.3194 69.2935 25.5124 69.146 25.6713C68.9984 25.8188 68.8111 25.8926 68.5841 25.8926C68.4706 25.8926 68.3571 25.8699 68.2436 25.8245C68.1301 25.7791 68.0393 25.711 67.9712 25.6202L60.259 15.4223V25.0924C60.259 25.3194 60.1852 25.5124 60.0376 25.6713C59.8901 25.8188 59.6971 25.8926 59.4588 25.8926ZM79.7716 26.0628C78.7728 26.0628 77.8592 25.8983 77.0306 25.5691C76.2021 25.2286 75.487 24.7519 74.8855 24.139C74.2953 23.5261 73.8299 22.8054 73.4894 21.9768C73.1603 21.1483 72.9957 20.2346 72.9957 19.2358C72.9957 18.2484 73.1603 17.3404 73.4894 16.5119C73.8299 15.6833 74.2953 14.9626 74.8855 14.3497C75.487 13.7368 76.2021 13.2658 77.0306 12.9366C77.8592 12.5961 78.7728 12.4259 79.7716 12.4259C80.7591 12.4259 81.6671 12.5961 82.4956 12.9366C83.3242 13.2658 84.0392 13.7368 84.6408 14.3497C85.2423 14.9626 85.7076 15.6833 86.0368 16.5119C86.3773 17.3404 86.5475 18.2484 86.5475 19.2358C86.5475 20.2346 86.3773 21.1483 86.0368 21.9768C85.7076 22.8054 85.2423 23.5261 84.6408 24.139C84.0392 24.7519 83.3242 25.2286 82.4956 25.5691C81.6671 25.8983 80.7591 26.0628 79.7716 26.0628ZM79.7716 24.5987C80.5321 24.5987 81.2301 24.4625 81.8657 24.1901C82.5013 23.9177 83.0518 23.5431 83.5171 23.0664C83.9938 22.5784 84.357 22.0109 84.6067 21.364C84.8678 20.7057 84.9983 19.9963 84.9983 19.2358C84.9983 18.4754 84.8678 17.7717 84.6067 17.1247C84.357 16.4778 83.9938 15.9103 83.5171 15.4223C83.0518 14.9342 82.5013 14.5597 81.8657 14.2986C81.2301 14.0262 80.5321 13.89 79.7716 13.89C79.0112 13.89 78.3132 14.0262 77.6776 14.2986C77.042 14.5597 76.4915 14.9342 76.0261 15.4223C75.5608 15.9103 75.1976 16.4778 74.9366 17.1247C74.6755 17.7717 74.545 18.4754 74.545 19.2358C74.545 19.9963 74.6755 20.7057 74.9366 21.364C75.1976 22.0109 75.5608 22.5784 76.0261 23.0664C76.4915 23.5431 77.042 23.9177 77.6776 24.1901C78.3132 24.4625 79.0112 24.5987 79.7716 24.5987ZM93.0396 25.8926C92.824 25.8926 92.6367 25.8188 92.4778 25.6713C92.3189 25.5124 92.2395 25.3194 92.2395 25.0924V12.5961H93.8398V25.0924C93.8398 25.3194 93.766 25.5124 93.6185 25.6713C93.4709 25.8188 93.278 25.8926 93.0396 25.8926ZM88.4259 14.0603C88.2102 14.0603 88.0343 13.9922 87.8981 13.856C87.7619 13.7198 87.6938 13.5438 87.6938 13.3282C87.6938 13.1125 87.7619 12.9366 87.8981 12.8004C88.0343 12.6642 88.2102 12.5961 88.4259 12.5961H97.6534C97.8804 12.5961 98.062 12.6642 98.1982 12.8004C98.3344 12.9366 98.4025 13.1125 98.4025 13.3282C98.4025 13.5438 98.3344 13.7198 98.1982 13.856C98.062 13.9922 97.8804 14.0603 97.6534 14.0603H88.4259ZM102.015 25.8926C101.788 25.8926 101.595 25.8188 101.436 25.6713C101.288 25.5124 101.215 25.3194 101.215 25.0924V13.3963C101.215 13.1579 101.288 12.965 101.436 12.8174C101.595 12.6699 101.788 12.5961 102.015 12.5961H105.13C105.97 12.5961 106.714 12.772 107.361 13.1239C108.019 13.4757 108.53 13.9638 108.893 14.588C109.267 15.2123 109.455 15.933 109.455 16.7502C109.455 17.522 109.267 18.2087 108.893 18.8102C108.53 19.4118 108.019 19.8828 107.361 20.2233C106.714 20.5638 105.97 20.734 105.13 20.734H102.815V25.0924C102.815 25.3194 102.741 25.5124 102.594 25.6713C102.446 25.8188 102.253 25.8926 102.015 25.8926ZM109.097 25.8926C108.95 25.8926 108.819 25.8642 108.706 25.8075C108.592 25.7394 108.49 25.6372 108.399 25.501L105.267 20.4616L106.833 20.019L109.727 24.6668C109.92 24.9732 109.948 25.257 109.812 25.518C109.676 25.7677 109.438 25.8926 109.097 25.8926ZM102.815 19.2358H105.13C105.675 19.2358 106.152 19.1337 106.56 18.9294C106.98 18.7137 107.31 18.4186 107.548 18.0441C107.786 17.6582 107.905 17.2269 107.905 16.7502C107.905 16.2281 107.786 15.7684 107.548 15.3712C107.31 14.9626 106.98 14.6505 106.56 14.4348C106.152 14.2078 105.675 14.0943 105.13 14.0943H102.815V19.2358ZM113.54 25.8926C113.313 25.8926 113.12 25.8188 112.961 25.6713C112.813 25.5124 112.74 25.3194 112.74 25.0924V13.3963C112.74 13.1579 112.813 12.965 112.961 12.8174C113.12 12.6699 113.313 12.5961 113.54 12.5961H121.354C121.581 12.5961 121.769 12.6699 121.916 12.8174C122.064 12.9536 122.137 13.1352 122.137 13.3622C122.137 13.5665 122.064 13.7425 121.916 13.89C121.769 14.0262 121.581 14.0943 121.354 14.0943H114.34V18.4527H119.396C119.635 18.4527 119.822 18.5265 119.958 18.674C120.106 18.8102 120.18 18.9861 120.18 19.2018C120.18 19.4174 120.106 19.599 119.958 19.7466C119.822 19.8828 119.635 19.9509 119.396 19.9509H114.34V24.3944H121.354C121.581 24.3944 121.769 24.4682 121.916 24.6157C122.064 24.7519 122.137 24.9222 122.137 25.1265C122.137 25.3535 122.064 25.5407 121.916 25.6883C121.769 25.8245 121.581 25.8926 121.354 25.8926H113.54ZM59.4758 44.8926C59.2488 44.8926 59.0559 44.8188 58.897 44.6713C58.7494 44.5124 58.6756 44.3194 58.6756 44.0924V32.3963C58.6756 32.1693 58.7494 31.982 58.897 31.8345C59.0559 31.6756 59.2488 31.5961 59.4758 31.5961H62.8808C63.732 31.5961 64.4811 31.7834 65.1281 32.1579C65.7864 32.5325 66.2971 33.0489 66.6603 33.7072C67.0235 34.3542 67.2051 35.1089 67.2051 35.9715C67.2051 36.8001 67.0235 37.5378 66.6603 38.1848C66.2971 38.8317 65.7864 39.3368 65.1281 39.7C64.4811 40.0632 63.732 40.2448 62.8808 40.2448H60.276V44.0924C60.276 44.3194 60.2022 44.5124 60.0547 44.6713C59.9071 44.8188 59.7142 44.8926 59.4758 44.8926ZM60.276 38.7466H62.8808C63.4256 38.7466 63.908 38.6274 64.3279 38.3891C64.7479 38.1507 65.077 37.8216 65.3154 37.4016C65.5537 36.9817 65.6729 36.505 65.6729 35.9715C65.6729 35.404 65.5537 34.9046 65.3154 34.4733C65.077 34.042 64.7479 33.7072 64.3279 33.4689C63.908 33.2192 63.4256 33.0943 62.8808 33.0943H60.276V38.7466ZM68.9394 44.8926C68.6443 44.8926 68.423 44.7677 68.2754 44.518C68.1279 44.2683 68.1165 44.0073 68.2414 43.7349L73.1105 32.1409C73.258 31.7777 73.5077 31.5961 73.8596 31.5961C74.2341 31.5961 74.4895 31.7777 74.6257 32.1409L79.5119 43.7689C79.6254 44.0413 79.6027 44.2967 79.4438 44.5351C79.2962 44.7734 79.0749 44.8926 78.7798 44.8926C78.6322 44.8926 78.4904 44.8529 78.3542 44.7734C78.218 44.6826 78.1158 44.5578 78.0477 44.3989L73.6383 33.571H74.132L69.6885 44.3989C69.6204 44.5691 69.5182 44.694 69.382 44.7734C69.2458 44.8529 69.0983 44.8926 68.9394 44.8926ZM69.9268 41.8792L70.5568 40.5342H77.3157L77.9285 41.8792H69.9268ZM84.9096 44.8926C84.6939 44.8926 84.5066 44.8188 84.3477 44.6713C84.1888 44.5124 84.1094 44.3194 84.1094 44.0924V31.5961H85.7097V44.0924C85.7097 44.3194 85.636 44.5124 85.4884 44.6713C85.3409 44.8188 85.1479 44.8926 84.9096 44.8926ZM80.2958 33.0603C80.0802 33.0603 79.9042 32.9922 79.768 32.856C79.6318 32.7198 79.5637 32.5438 79.5637 32.3282C79.5637 32.1125 79.6318 31.9366 79.768 31.8004C79.9042 31.6642 80.0802 31.5961 80.2958 31.5961H89.5233C89.7503 31.5961 89.9319 31.6642 90.0681 31.8004C90.2043 31.9366 90.2724 32.1125 90.2724 32.3282C90.2724 32.5438 90.2043 32.7198 90.0681 32.856C89.9319 32.9922 89.7503 33.0603 89.5233 33.0603H80.2958ZM93.8847 44.8926C93.6578 44.8926 93.4648 44.8188 93.3059 44.6713C93.1584 44.5124 93.0846 44.3194 93.0846 44.0924V32.3963C93.0846 32.1579 93.1584 31.965 93.3059 31.8174C93.4648 31.6699 93.6578 31.5961 93.8847 31.5961H97.0003C97.8402 31.5961 98.5836 31.772 99.2306 32.1239C99.8889 32.4757 100.4 32.9638 100.763 33.588C101.137 34.2123 101.325 34.933 101.325 35.7502C101.325 36.522 101.137 37.2087 100.763 37.8102C100.4 38.4118 99.8889 38.8828 99.2306 39.2233C98.5836 39.5638 97.8402 39.734 97.0003 39.734H94.6849V44.0924C94.6849 44.3194 94.6111 44.5124 94.4636 44.6713C94.316 44.8188 94.1231 44.8926 93.8847 44.8926ZM100.967 44.8926C100.82 44.8926 100.689 44.8642 100.576 44.8075C100.462 44.7394 100.36 44.6372 100.269 44.501L97.1365 39.4616L98.7028 39.019L101.597 43.6668C101.79 43.9732 101.818 44.257 101.682 44.518C101.546 44.7677 101.308 44.8926 100.967 44.8926ZM94.6849 38.2358H97.0003C97.5451 38.2358 98.0218 38.1337 98.4304 37.9294C98.8503 37.7137 99.1795 37.4186 99.4178 37.0441C99.6562 36.6582 99.7754 36.2269 99.7754 35.7502C99.7754 35.2281 99.6562 34.7684 99.4178 34.3712C99.1795 33.9626 98.8503 33.6505 98.4304 33.4348C98.0218 33.2078 97.5451 33.0943 97.0003 33.0943H94.6849V38.2358ZM105.41 44.8926C105.183 44.8926 104.99 44.8188 104.831 44.6713C104.683 44.5124 104.61 44.3194 104.61 44.0924V32.3963C104.61 32.1579 104.683 31.965 104.831 31.8174C104.99 31.6699 105.183 31.5961 105.41 31.5961C105.648 31.5961 105.841 31.6699 105.989 31.8174C106.136 31.965 106.21 32.1579 106.21 32.3963V44.0924C106.21 44.3194 106.136 44.5124 105.989 44.6713C105.841 44.8188 105.648 44.8926 105.41 44.8926ZM111.265 44.8926C111.038 44.8926 110.846 44.8188 110.687 44.6713C110.539 44.5124 110.465 44.3194 110.465 44.0924V32.3963C110.465 32.1579 110.539 31.965 110.687 31.8174C110.846 31.6699 111.038 31.5961 111.265 31.5961C111.583 31.5961 111.822 31.738 111.98 32.0217L117.463 42.9688H116.901L122.264 32.0217C122.434 31.738 122.672 31.5961 122.979 31.5961C123.206 31.5961 123.393 31.6699 123.54 31.8174C123.699 31.965 123.779 32.1579 123.779 32.3963V44.0924C123.779 44.3194 123.699 44.5124 123.54 44.6713C123.382 44.8188 123.194 44.8926 122.979 44.8926C122.752 44.8926 122.559 44.8188 122.4 44.6713C122.252 44.5124 122.178 44.3194 122.178 44.0924V34.5585L122.485 34.5244L117.82 44.0584C117.65 44.3308 117.417 44.467 117.122 44.467C116.782 44.467 116.538 44.3024 116.39 43.9732L111.725 34.6436L112.066 34.5585V44.0924C112.066 44.3194 111.986 44.5124 111.827 44.6713C111.68 44.8188 111.492 44.8926 111.265 44.8926ZM134.188 45.0628C133.189 45.0628 132.276 44.8983 131.447 44.5691C130.619 44.2286 129.904 43.7519 129.302 43.139C128.712 42.5261 128.246 41.8054 127.906 40.9768C127.577 40.1483 127.412 39.2346 127.412 38.2358C127.412 37.2484 127.577 36.3404 127.906 35.5119C128.246 34.6833 128.712 33.9626 129.302 33.3497C129.904 32.7368 130.619 32.2658 131.447 31.9366C132.276 31.5961 133.189 31.4259 134.188 31.4259C135.176 31.4259 136.084 31.5961 136.912 31.9366C137.741 32.2658 138.456 32.7368 139.057 33.3497C139.659 33.9626 140.124 34.6833 140.453 35.5119C140.794 36.3404 140.964 37.2484 140.964 38.2358C140.964 39.2346 140.794 40.1483 140.453 40.9768C140.124 41.8054 139.659 42.5261 139.057 43.139C138.456 43.7519 137.741 44.2286 136.912 44.5691C136.084 44.8983 135.176 45.0628 134.188 45.0628ZM134.188 43.5987C134.949 43.5987 135.647 43.4625 136.282 43.1901C136.918 42.9177 137.468 42.5431 137.934 42.0664C138.41 41.5784 138.774 41.0109 139.023 40.364C139.284 39.7057 139.415 38.9963 139.415 38.2358C139.415 37.4754 139.284 36.7717 139.023 36.1247C138.774 35.4778 138.41 34.9103 137.934 34.4223C137.468 33.9342 136.918 33.5597 136.282 33.2986C135.647 33.0262 134.949 32.89 134.188 32.89C133.428 32.89 132.73 33.0262 132.094 33.2986C131.459 33.5597 130.908 33.9342 130.443 34.4223C129.977 34.9103 129.614 35.4778 129.353 36.1247C129.092 36.7717 128.962 37.4754 128.962 38.2358C128.962 38.9963 129.092 39.7057 129.353 40.364C129.614 41.0109 129.977 41.5784 130.443 42.0664C130.908 42.5431 131.459 42.9177 132.094 43.1901C132.73 43.4625 133.428 43.5987 134.188 43.5987ZM145.372 44.8926C145.145 44.8926 144.952 44.8188 144.793 44.6713C144.645 44.5124 144.572 44.3194 144.572 44.0924V32.3963C144.572 32.1579 144.645 31.965 144.793 31.8174C144.952 31.6699 145.145 31.5961 145.372 31.5961C145.61 31.5961 145.803 31.6699 145.951 31.8174C146.098 31.965 146.172 32.1579 146.172 32.3963V44.0924C146.172 44.3194 146.098 44.5124 145.951 44.6713C145.803 44.8188 145.61 44.8926 145.372 44.8926ZM151.21 44.8926C150.983 44.8926 150.796 44.8188 150.649 44.6713C150.501 44.5124 150.427 44.3194 150.427 44.0924V32.3963C150.427 32.1579 150.501 31.965 150.649 31.8174C150.796 31.6699 150.983 31.5961 151.21 31.5961C151.46 31.5961 151.67 31.6926 151.84 31.8855L159.536 42.0835V32.3963C159.536 32.1579 159.609 31.965 159.757 31.8174C159.916 31.6699 160.109 31.5961 160.336 31.5961C160.563 31.5961 160.75 31.6699 160.898 31.8174C161.045 31.965 161.119 32.1579 161.119 32.3963V44.0924C161.119 44.3194 161.045 44.5124 160.898 44.6713C160.75 44.8188 160.563 44.8926 160.336 44.8926C160.222 44.8926 160.109 44.8699 159.995 44.8245C159.882 44.7791 159.791 44.711 159.723 44.6202L152.011 34.4223V44.0924C152.011 44.3194 151.937 44.5124 151.789 44.6713C151.642 44.8188 151.449 44.8926 151.21 44.8926ZM166.177 44.8926C165.95 44.8926 165.757 44.8188 165.599 44.6713C165.451 44.5124 165.377 44.3194 165.377 44.0924V32.3963C165.377 32.1579 165.451 31.965 165.599 31.8174C165.757 31.6699 165.95 31.5961 166.177 31.5961H173.992C174.219 31.5961 174.406 31.6699 174.554 31.8174C174.701 31.9536 174.775 32.1352 174.775 32.3622C174.775 32.5665 174.701 32.7425 174.554 32.89C174.406 33.0262 174.219 33.0943 173.992 33.0943H166.978V37.4527H172.034C172.272 37.4527 172.46 37.5265 172.596 37.674C172.743 37.8102 172.817 37.9861 172.817 38.2018C172.817 38.4174 172.743 38.599 172.596 38.7466C172.46 38.8828 172.272 38.9509 172.034 38.9509H166.978V43.3944H173.992C174.219 43.3944 174.406 43.4682 174.554 43.6157C174.701 43.7519 174.775 43.9222 174.775 44.1265C174.775 44.3535 174.701 44.5407 174.554 44.6883C174.406 44.8245 174.219 44.8926 173.992 44.8926H166.177Z" fill="#F7941E"/>
<rect x="16.5815" y="20.5469" width="4.15921" height="4.15921" fill="#F7941E"/>
<rect x="16.5815" y="27.2012" width="4.15921" height="4.15921" fill="#F7941E"/>
<rect x="23.2363" y="27.2012" width="4.15921" height="4.15921" fill="#F7941E"/>
<rect x="23.2363" y="20.5469" width="4.15921" height="4.15921" fill="#F7941E"/>
<path fill-rule="evenodd" clip-rule="evenodd" d="M0 11.0754L21.6279 0L43.9768 11.1744L43.9768 11.5349V46.5H36.0465L16.5814 46.5V38.5698H36.0465V16.5814L21.6279 9.37209L7.81995 16.5062L7.93023 16.5814V46.5H0V11.1744V11.0754Z" fill="#F7941E"/>
</svg>
